<svg xmlns="http://www.w3.org/2000/svg" version="1.1" xmlns:xlink="http://www.w3.org/1999/xlink" xmlns:svgjs="http://svgjs.dev/svgjs" width="100%" height="100%" viewBox="0 0 1000 600"><rect width="1000" height="600" x="0" y="0" fill="#ffffff"/><g><circle r="166.66666666666666" cx="264.55822245279944" cy="286.7804364644531" fill="#0d98ba" transform="matrix(1.2769232799595058,0,0,1.276923279959506,0,-66.19662591678464)"/><path d="M194.7027638297714 361.7804692944556Q185.43718629835942 361.7804692944556 177.94930678169507 359.3563356379815Q170.46142726503072 356.9591367999127 165.07446358397723 352.40715248942246L165.07446358397723 352.40715248942246Q159.57976062930265 347.8551681789323 156.69773505993905 341.6062903089102Q153.81570949057544 335.35741243888816 153.81570949057544 327.78872846700807L153.81570949057544 327.78872846700807Q153.81570949057544 321.43211132336495 155.8358208709705 315.802734276664Q157.88286706977084 310.17335722996313 161.57293719129245 305.9984603771467L161.57293719129245 305.9984603771467Q165.2630073128141 301.8504983427355 170.19207908097803 299.5341039598825Q175.121150849142 297.19077475862423 180.61585380381655 297.19077475862423L180.61585380381655 297.19077475862423Q187.4303628603492 297.19077475862423 192.06315162605523 300.6114966960932Q196.6959403917612 304.03221863356214 197.82720276478244 309.98481350112627L197.82720276478244 309.98481350112627Q187.69971104440188 309.98481350112627 181.74711617683778 315.37177718217976L181.74711617683778 315.37177718217976Q178.8920254258794 317.93058493068014 177.32980595837392 321.6206550522018Q175.7675864908684 325.3376599921287 175.7675864908684 329.7819050289978L175.7675864908684 329.7819050289978Q175.7675864908684 338.2933076450623 180.75052789584288 343.2762490500368Q185.7065344824121 348.23225563660606 194.1371326432608 348.23225563660606L194.1371326432608 348.23225563660606Q199.1739436850458 348.23225563660606 203.51044944829385 346.40068798504785Q207.8738900299472 344.5421855150844 211.10606823857927 341.33694212485756L211.10606823857927 341.33694212485756Q214.31131162880615 338.10476391622547 216.0620748251485 333.6066492425458Q217.8128380214909 329.10853456886616 217.8128380214909 323.99091907186533L217.8128380214909 323.99091907186533Q217.8128380214909 314.5367978116165 211.375416422632 304.30156681761486L211.375416422632 304.30156681761486Q208.81660867413154 300.31521369363526 205.7460393759311 296.49046948008726Q202.6754700777306 292.6657252665393 197.18076712305603 286.3091081228962L197.18076712305603 286.3091081228962Q192.2516953548921 280.6258614393848 188.9387126910442 276.4509645865683Q185.6257300271963 272.3030025521571 182.9591830050748 267.9395619705038L182.9591830050748 267.9395619705038Q176.5217614062159 257.4349827924495 176.5217614062159 247.3074910720689L176.5217614062159 247.3074910720689Q176.5217614062159 239.71187228178349 179.75393961484798 233.2475158645193Q182.9591830050748 226.75622462884985 188.9387126910442 221.90795731590168L188.9387126910442 221.90795731590168Q194.89130755860828 217.08662482135884 202.86401380656747 214.44701261764263Q210.80978523612134 211.78046559552115 219.99455831231757 211.78046559552115L219.99455831231757 211.78046559552115Q235.61675298737265 211.78046559552115 245.0978090660268 219.1875406569697L245.0978090660268 219.1875406569697Q249.62285855811177 222.76987150487025 252.04699221458583 227.77974772825002Q254.47112587105988 232.81655877003504 254.47112587105988 238.957697366436L254.47112587105988 238.957697366436Q254.47112587105988 247.01120806961097 250.4039682918645 252.1288235666118L250.4039682918645 252.1288235666118Q248.4915961850905 254.57989204149112 245.6903750709427 255.92663296175448Q242.91608877520014 257.2464390636126 239.7916498401891 257.2464390636126L239.7916498401891 257.2464390636126Q232.49231405236162 257.2464390636126 227.94032974187144 251.18610492242743L227.94032974187144 251.18610492242743Q231.6303998633931 248.51955790030593 233.78518533581445 244.12918250024734Q235.91303598983058 239.71187228178349 235.91303598983058 234.70199605840372L235.91303598983058 234.70199605840372Q235.91303598983058 228.4531181883817 232.22296586830896 224.81691770367058Q228.50596092838208 221.15378240055423 222.06853932952316 221.15378240055423L222.06853932952316 221.15378240055423Q218.18992547916463 221.15378240055423 214.93081245212727 222.5813277760334Q211.6716994250899 224.00887315151255 209.3822398606422 226.6484853552288L209.3822398606422 226.6484853552288Q207.01197584097866 229.31503237735024 205.7460393759311 232.89736322525084Q204.45316809247822 236.50662889155666 204.45316809247822 240.76233019958892L204.45316809247822 240.76233019958892Q204.45316809247822 246.8226643407741 207.3082588434366 252.42510656906973Q210.13641477598966 258.0006139789601 215.44257400182735 264.06094812014527L215.44257400182735 264.06094812014527Q220.18310204115443 269.6364555300356 225.67780499582898 275.13115848471017L225.67780499582898 275.13115848471017Q238.47184373833102 288.3830891401018 243.75106814576344 300.98858415376696L243.75106814576344 300.98858415376696Q246.87550708077447 308.4764636704313 246.87550708077447 317.4726930177906L246.87550708077447 317.4726930177906Q246.87550708077447 326.9268142780395 242.99689323041594 335.03419461802497Q239.11827938005746 343.1146401396052 231.92668286585103 349.0941698255746L231.92668286585103 349.0941698255746Q224.7350863516446 355.1545039667598 215.17322581777466 358.46748663060765Q205.61136528390472 361.7804692944556 194.7027638297714 361.7804692944556L194.7027638297714 361.7804692944556ZM332.8783822487934 361.5919255656187Q324.82487154561846 361.5919255656187 320.1920827799125 358.8445740882814L320.1920827799125 358.8445740882814Q313.6469219074325 355.0467646931387 313.6469219074325 347.2087325372059L313.6469219074325 347.2087325372059Q313.6469219074325 341.983377766584 316.0979903823118 335.9230436253988L316.0979903823118 335.9230436253988Q319.70725604861764 339.8016574757573 322.7239557100076 341.3638769432628Q325.7675901898028 342.92609641076837 329.1883121272718 342.92609641076837L329.1883121272718 342.92609641076837Q338.83097711635753 342.92609641076837 344.02939706857416 330.99397185723484L344.02939706857416 330.99397185723484Q346.2111173594008 326.172639362692 347.26157527720625 320.05843558469627Q348.3120331950117 313.9711666251058 348.3120331950117 308.09937621275753L348.3120331950117 308.09937621275753Q348.3120331950117 296.9214265745715 344.43341934465315 290.6725487045495L344.43341934465315 290.6725487045495Q339.7736957605419 283.373212916722 329.94248704261923 283.373212916722L329.94248704261923 283.373212916722Q324.7171322719974 283.373212916722 321.0270621504758 284.0465833768537L321.0270621504758 284.0465833768537L305.135519291368 358.2789429017708L277.1771777867003 358.2789429017708L303.5194301870519 234.8905397872406L332.20501178866175 231.11966521050317L323.12797798608665 274.10763538531L324.2592403591078 274.10763538531Q329.8347477689982 274.10763538531 334.95236326599905 271.3602839079727Q340.0699787629998 268.61293243063545 343.94859261335836 263.8724043913084L343.94859261335836 263.8724043913084Q347.7464020085011 259.23961562560237 349.955057117733 253.63717339730675Q352.19064704537016 248.0616659874164 352.19064704537016 242.64776748795765L352.19064704537016 242.64776748795765Q352.19064704537016 238.49980545354646 350.70923203308047 234.75586569521428Q349.25475183919605 231.0119259368821 346.3188566330219 228.18377000432903L346.3188566330219 228.18377000432903Q339.58515203170504 221.71941358706482 326.6295043787714 221.71941358706482L326.6295043787714 221.71941358706482Q314.6973798252379 221.71941358706482 303.97732209994143 226.83702908406565L303.97732209994143 226.83702908406565Q292.04519754640796 232.62801504119815 285.7155152211701 242.45922375912076L285.7155152211701 242.45922375912076Q278.14683124928996 253.93345639976468 278.14683124928996 268.8822806146881L278.14683124928996 268.8822806146881Q278.14683124928996 275.13115848471017 279.5474418063639 278.5518804221792L279.5474418063639 278.5518804221792Q279.92452926403763 279.7908820688214 280.4901604505483 280.73360071300584L280.4901604505483 280.73360071300584Q280.89418272662726 281.3800363547322 280.89418272662726 282.05340681486393L280.89418272662726 282.05340681486393Q270.55121245900455 282.05340681486393 265.3527925067879 277.932379598858Q260.1543725545713 273.8113523828521 260.1543725545713 264.24949184898213L260.1543725545713 264.24949184898213Q260.1543725545713 250.99756119359057 270.2818642749519 238.957697366436L270.2818642749519 238.957697366436Q275.02239231427893 233.27445068292457 281.5944880051642 228.50698782519223Q288.1665836960495 223.71259014905462 296.03155067038756 220.21106375636987L296.03155067038756 220.21106375636987Q312.59646398962707 212.83092351332658 330.5081182291299 212.83092351332658L330.5081182291299 212.83092351332658Q350.49375348583834 212.83092351332658 361.8333120344559 222.31197959198073L361.8333120344559 222.31197959198073Q366.76238380261987 226.45994162639192 369.2673219143097 232.008514217877Q371.7991948444049 237.5570868093621 371.7991948444049 243.69822540576308L371.7991948444049 243.69822540576308Q371.7991948444049 252.88299848195925 366.87012307624093 260.7479654562974L366.87012307624093 260.7479654562974Q361.3754201215664 269.44791180119876 352.3791907742071 274.4847228429838L352.3791907742071 274.4847228429838Q364.01503232528256 276.5587038601894 370.07536646646776 285.74347693638555L370.07536646646776 285.74347693638555Q375.30072123708965 293.79698763956054 375.30072123708965 305.72911219309395L375.30072123708965 305.72911219309395Q375.30072123708965 310.658183961258 374.3310677745 316.61077882882205Q373.3883491303157 322.59030851479145 371.50291184194697 328.4620989271397L371.50291184194697 328.4620989271397Q366.87012307624093 343.03383568438943 358.33178564177115 351.2758901164013L358.33178564177115 351.2758901164013Q347.7464020085011 361.5919255656187 332.8783822487934 361.5919255656187L332.8783822487934 361.5919255656187Z " fill="#ffffff" transform="matrix(1.2769232799595058,0,0,1.276923279959506,0,-66.19662591678464)"/><path d="M553.7205815776604 361.78047470912014Q536.9541944064978 361.78047470912014 526.5924855464606 351.3371775903425L526.5924855464606 351.3371775903425Q514.5582173822442 338.97655639116425 514.5582173822442 314.62246115713975L514.5582173822442 314.62246115713975Q514.5582173822442 304.26075229710256 516.6387179801256 292.79760194406924Q518.719218578007 281.33445159103593 522.7170432562891 270.1568601435942L522.7170432562891 270.1568601435942Q531.8957223645898 244.90529406342478 547.846226948348 229.40352490273915L547.846226948348 229.40352490273915Q566.2035851649493 211.78046101480186 590.1497391052716 211.78046101480186L590.1497391052716 211.78046101480186Q602.0616248813774 211.78046101480186 608.0175677694302 215.85987395182437Q613.9327165281129 219.93928688884688 613.9327165281129 226.67031823493406L613.9327165281129 226.67031823493406L613.9327165281129 228.832407091556L617.1146586189905 213.20825554275973L659.4181707759141 213.20825554275973L638.3276058915076 313.031490111701Q637.0221937516604 317.31487369557465 637.0221937516604 322.49572812559325L637.0221937516604 322.49572812559325Q637.0221937516604 335.10111410099285 649.0972560452471 335.10111410099285L649.0972560452471 335.10111410099285Q657.1336995311815 335.10111410099285 663.7015543597877 326.9422882269478L663.7015543597877 326.9422882269478Q669.2903500835087 320.0480803633797 672.8802334680884 307.4426943879801L672.8802334680884 307.4426943879801L685.2408546672667 307.4426943879801Q677.326793569443 329.79787728286357 666.1492021220013 342.85199868133566L666.1492021220013 342.85199868133566Q656.6849641081089 353.6216488350751 644.7730783320033 358.3537678420212L644.7730783320033 358.3537678420212Q636.043134646775 361.78047470912014 626.2933377272911 361.78047470912014L626.2933377272911 361.78047470912014Q613.8103341400022 361.78047470912014 606.4265967239915 354.9678551042926Q599.0428593079807 348.15523549946494 597.4518882625418 334.81555519540126L597.4518882625418 334.81555519540126Q589.1298858710159 346.6050585833964 579.9512067627152 353.17291341200263L579.9512067627152 353.17291341200263Q568.2024975040904 361.78047470912014 553.7205815776604 361.78047470912014L553.7205815776604 361.78047470912014ZM572.7714399935555 333.3877606674434Q576.0757644725438 333.3877606674434 579.7472361158641 331.67440723389393Q583.4187077591844 329.9610538003445 586.8454146262833 326.7791117094669L586.8454146262833 326.7791117094669Q594.5962992066261 319.3545801640859 597.1663293569503 307.4426943879801L597.1663293569503 307.4426943879801L611.2403039896781 241.19302829073428Q611.2403039896781 239.72443963340615 610.5875979197544 237.8071155530056Q609.9348918498308 235.84899734323477 608.7926562274645 234.13564390968529L608.7926562274645 234.13564390968529Q605.3251552309954 229.97464271392232 599.1652416960914 229.97464271392232L599.1652416960914 229.97464271392232Q593.2908870667789 229.97464271392232 587.7836796017984 233.85008500409373Q582.2356780074479 237.72552729426513 577.3811766123911 244.6197351578332L577.3811766123911 244.6197351578332Q568.7736153152734 257.1027387451221 563.1848195915527 277.17345039527294L563.1848195915527 277.17345039527294Q560.6147894412285 286.0665705979821 559.3093773013812 294.75572015384006Q558.0039651615341 303.4040755803278 558.0039651615341 310.46145996137676L558.0039651615341 310.46145996137676Q558.0039651615341 325.0657582759174 563.4703784971442 330.24661270593606L563.4703784971442 330.24661270593606Q565.3469084481746 332.24552504507704 567.6313796929072 332.8166428562602Q569.9158509376398 333.3877606674434 572.7714399935555 333.3877606674434L572.7714399935555 333.3877606674434Z " fill="#ffffff" transform="matrix(1.2769232799595058,0,0,1.276923279959506,0,-66.19662591678464)"/></g></svg>